<svg xmlns="http://www.w3.org/2000/svg" xmlns:dc="http://purl.org/dc/elements/1.1/" xmlns:cc="http://creativecommons.org/ns#" xmlns:rdf="http://www.w3.org/1999/02/22-rdf-syntax-ns#" xmlns:svg="http://www.w3.org/2000/svg" xmlns:xlink="http://www.w3.org/1999/xlink" xmlns:sodipodi="http://sodipodi.sourceforge.net/DTD/sodipodi-0.dtd" xmlns:inkscape="http://www.inkscape.org/namespaces/inkscape" viewBox="0 0 294.609406 294.609406" width="294.609406" height="294.609406">
  <metadata id="metadata1">
    <rdf:RDF>
      <cc:Work rdf:about="">
        <dc:title>vimlogo 1.1.0</dc:title>
        <dc:creator>
          <cc:Agent>
            <dc:title>Shay Hill</dc:title>
          </cc:Agent>
        </dc:creator>
        <dc:description>The classic Vim logo.</dc:description>
        <dc:source>https://www.github.com/ShayHill/vimlogo</dc:source>
        <dc:relation>https://github.com/vim/vim</dc:relation>
        <dc:rights>
          <cc:Agent>
            <dc:title>https://github.com/vim/vim/blob/master/LICENSE</dc:title>
          </cc:Agent>
        </dc:rights>
      </cc:Work>
    </rdf:RDF>
  </metadata>
  <path id="background" d="M20.281866,25.275865 V50.784065 L31.941378,62.443577 H36.406866 V111.397837 L0.5,147.304703 36.406866,183.211569 V251.086148 L49.003878,263.68316 H83.064923 L99.617166,246.421869 147.304703,294.109406 188.960759,252.45335 H274.354061 L283.082713,226.267395 H277.431021 L289.205557,190.943788 277.808372,175.402172 H266.011936 L294.109406,147.304703 243.343475,96.538772 287.338256,50.659391 V25.275865 L275.678745,13.616353 H179.326795 L169.873925,23.069222 147.304703,0.5 131.678339,16.126364 129.168328,13.616353 H31.941378Z" fill="#ffffff"/>
  <g id="diamond">
    <path id="diamond_outline" d="M287.632828,147.304703 147.304703,6.976577 6.976577,147.304703 147.304703,287.632828 192.751313,242.186218 H170.875178 L187.830252,191.320996 H182.178561 L184.062458,185.669304 H204.785326 L210.437017,191.320996 H216.088709 L221.7404,185.669304 H238.695474 L243.981851,190.955681Z" fill="#000000"/>
    <path id="diamond_face" d="M273.466811,147.304703 147.304703,21.142595 21.142595,147.304703 147.304703,273.466811 178.585296,242.186218 H170.875178 L187.830252,191.320996 H182.178561 L184.062458,185.669304 H204.785326 L210.437017,191.320996 H216.088709 L221.7404,185.669304 H235.10221Z" fill="#009933"/>
    <path id="diamond_bevel_0" d="M147.304703,21.142595 V12.664077 L12.664077,147.304703 H21.142595Z" fill="#87ff3c" stroke="#000000" stroke-width="0.216"/>
    <path id="diamond_bevel_1" d="M273.466811,147.304703 H281.945329 L147.304703,12.664077 V21.142595Z" fill="#3edc3c" stroke="#000000" stroke-width="0.216"/>
    <path id="diamond_bevel_2" d="M235.10221,185.669304 H238.695474 L241.138101,188.111931 281.945329,147.304703 H273.466811Z M147.304703,273.466811 V281.945329 L187.063814,242.186218 H178.585296Z" fill="#0d493c" stroke="#000000" stroke-width="0.216"/>
    <path id="diamond_bevel_3" d="M21.142595,147.304703 H12.664077 L147.304703,281.945329 V273.466811Z" fill="#26973c" stroke="#000000" stroke-width="0.216"/>
  </g>
  <g id="letter_v">
    <path id="v_outline" d="M24.789228,27.142875 33.808388,18.123715 H127.301318 L136.320478,27.142875 V48.917055 L127.301318,57.936215 H122.132978 V116.997042 L181.193805,57.936215 172.174645,48.917055 V27.142875 L181.193805,18.123715 H273.811734 L282.830895,27.142875 V48.847502 L81.14231,259.175798 H50.870888 L39.976728,248.281638 V57.936215 H33.808388 L24.789228,48.917055Z" fill="#000000"/>
    <path id="v_lit_bevels" d="M30.476728,29.498715 36.164228,23.811215 H124.945478 L130.632978,29.498715 V46.561215 L124.945478,52.248715 H116.445478 V130.727882 L194.924645,52.248715 H183.549645 L177.862145,46.561215 V29.498715 L183.549645,23.811215 H271.455895 L277.143395,29.498715 V46.561215 L78.716311,253.488298 H53.226728 L46.601728,246.863298 V52.248715 H36.164228 L30.476728,46.561215Z" fill="#ffffff" stroke="#000000" stroke-width="0.216"/>
    <path id="v_dim_bevel_0" d="M130.632978,29.498715 V46.561215 L124.945478,52.248715 H116.445478 V130.727882 L106.007978,152.540382 V46.561215 H122.589638 L124.945478,44.205375 V31.854555 L122.589638,29.498715Z" fill="#7f7f7f" stroke="#000000" stroke-width="0.216"/>
    <path id="v_dim_bevel_1" d="M194.924645,52.248715 H183.549645 V44.205375 L185.905484,46.561215 H200.612145Z" fill="#7f7f7f" stroke="#000000" stroke-width="0.216"/>
    <path id="v_dim_bevel_2" d="M277.143395,29.498715 V46.561215 L78.716311,253.488298 H53.226728 V245.444959 L55.582568,247.800798 H73.028811 L271.455895,40.873715 V31.854555 L269.100055,29.498715Z" fill="#7f7f7f" stroke="#000000" stroke-width="0.216"/>
    <path id="v_dim_bevel_3" d="M46.601728,52.248715 H36.164228 V44.205375 L38.520068,46.561215 H53.226728Z" fill="#7f7f7f" stroke="#000000" stroke-width="0.216"/>
    <path id="v_face" d="M36.164228,31.854555 38.520068,29.498715 H122.589638 L124.945478,31.854555 V44.205375 L122.589638,46.561215 H106.007978 V152.540382 L200.612145,57.936215 V46.561215 H185.905484 L183.549645,44.205375 V31.854555 L185.905484,29.498715 H269.100055 L271.455895,31.854555 V40.873715 L73.028811,247.800798 H55.582568 L53.226728,245.444959 V46.561215 H38.520068 L36.164228,44.205375Z" fill="#cccccc" stroke="#000000" stroke-width="0.216"/>
  </g>
  <g id="letters_im">
    <path id="im_outline" d="M173.71296,177.227576 180.418734,172.198245 185.627991,156.570474 180.512675,148.897502 H164.269602 L157.563828,153.926832 152.354571,169.554603 157.469886,177.227576Z M160.86914,230.847027 177.824214,179.981804 H143.227146 L137.551582,197.008496 H143.203273 L126.248199,247.873718 H160.845268 L166.520831,230.847027Z M203.256825,230.847027 H197.605134 L205.11685,208.311878 H212.907467 L199.720187,247.873718 H234.317255 L239.992819,230.847027 H234.341128 L241.852844,208.311878 H249.643461 L236.456181,247.873718 H271.053249 L276.728813,230.847027 H271.077122 L284.11204,191.742272 275.487697,179.981804 H253.294709 L247.643017,185.633496 H246.703005 L241.051314,179.981804 H219.384561 L213.732869,185.633496 H212.792857 L207.141166,179.981804 H179.96314 L174.287576,197.008496 H179.939267 L162.984193,247.873718 H197.581261Z" fill="#000000"/>
    <path id="im_face" d="M134.139184,242.186218 151.094258,191.320996 H145.442567 L147.326464,185.669304 H169.933229 L152.978155,236.534527 H158.629847 L156.745949,242.186218Z M158.629847,168.71423 162.397641,157.410847 166.165435,154.585002 H177.468818 L179.352715,157.410847 175.584921,168.71423 171.817126,171.540076 H160.513744Z M170.875178,242.186218 187.830252,191.320996 H182.178561 L184.062458,185.669304 H204.785326 L210.437017,191.320996 H216.088709 L221.7404,185.669304 H238.695474 L244.347166,191.320996 H249.998857 L255.650548,185.669304 H272.605623 L277.78634,192.733918 263.186137,236.534527 H268.837828 L266.953931,242.186218 H244.347166 L257.534446,202.624378 H237.753526 L226.450143,236.534527 H232.101834 L230.217937,242.186218 H207.611172 L220.798452,202.624378 H201.017532 L189.714149,236.534527 H195.36584 L193.481943,242.186218Z" fill="#cccccc"/>
  </g>
</svg>
