<?xml version="1.0" encoding="UTF-8" standalone="no"?>
<!-- Created with Inkscape (http://www.inkscape.org/) -->

<svg
   xmlns:dc="http://purl.org/dc/elements/1.1/"
   xmlns:cc="http://creativecommons.org/ns#"
   xmlns:rdf="http://www.w3.org/1999/02/22-rdf-syntax-ns#"
   xmlns:svg="http://www.w3.org/2000/svg"
   xmlns="http://www.w3.org/2000/svg"
   xmlns:xlink="http://www.w3.org/1999/xlink"
   xmlns:sodipodi="http://sodipodi.sourceforge.net/DTD/sodipodi-0.dtd"
   xmlns:inkscape="http://www.inkscape.org/namespaces/inkscape"
   width="328"
   height="628"
   id="svg2"
   version="1.1"
   inkscape:version="0.47 r22583"
   sodipodi:docname="welcome.svg"
   inkscape:export-filename="welcome.png"
   inkscape:export-xdpi="90"
   inkscape:export-ydpi="90">
  <defs
     id="defs4">
    <filter
       id="filter3356"
       inkscape:label="Drop shadow"
       width="1.5"
       height="1.5"
       x="-.25"
       y="-.25">
      <feGaussianBlur
         id="feGaussianBlur3358"
         in="SourceAlpha"
         stdDeviation="5.000000"
         result="blur" />
      <feColorMatrix
         id="feColorMatrix3360"
         result="bluralpha"
         type="matrix"
         values="1 0 0 0 0 0 1 0 0 0 0 0 1 0 0 0 0 0 0.600000 0 " />
      <feOffset
         id="feOffset3362"
         in="bluralpha"
         dx="-10.000000"
         dy="10.000000"
         result="offsetBlur" />
      <feMerge
         id="feMerge3364">
        <feMergeNode
           id="feMergeNode3366"
           in="offsetBlur" />
        <feMergeNode
           id="feMergeNode3368"
           in="SourceGraphic" />
      </feMerge>
    </filter>
    <filter
       id="filter3496"
       inkscape:label="Drop shadow"
       width="1.5"
       height="1.5"
       x="-.25"
       y="-.25">
      <feGaussianBlur
         id="feGaussianBlur3498"
         in="SourceAlpha"
         stdDeviation="3.000000"
         result="blur" />
      <feColorMatrix
         id="feColorMatrix3500"
         result="bluralpha"
         type="matrix"
         values="1 0 0 0 0 0 1 0 0 0 0 0 1 0 0 0 0 0 0.600000 0 " />
      <feOffset
         id="feOffset3502"
         in="bluralpha"
         dx="-5.000000"
         dy="5.000000"
         result="offsetBlur" />
      <feMerge
         id="feMerge3504">
        <feMergeNode
           id="feMergeNode3506"
           in="offsetBlur" />
        <feMergeNode
           id="feMergeNode3508"
           in="SourceGraphic" />
      </feMerge>
    </filter>
  </defs>
  <sodipodi:namedview
     id="base"
     pagecolor="#ffffff"
     bordercolor="#666666"
     borderopacity="1.0"
     inkscape:pageopacity="1"
     inkscape:pageshadow="2"
     inkscape:zoom="1.0716561"
     inkscape:cx="122.81449"
     inkscape:cy="381.22777"
     inkscape:document-units="px"
     inkscape:current-layer="layer1"
     showgrid="false"
     inkscape:window-width="1280"
     inkscape:window-height="942"
     inkscape:window-x="0"
     inkscape:window-y="27"
     inkscape:window-maximized="1"
     inkscape:snap-global="true"
     inkscape:showpageshadow="false" />
  <metadata
     id="metadata7">
    <rdf:RDF>
      <cc:Work
         rdf:about="">
        <dc:format>image/svg+xml</dc:format>
        <dc:type
           rdf:resource="http://purl.org/dc/dcmitype/StillImage" />
        <dc:title></dc:title>
      </cc:Work>
    </rdf:RDF>
  </metadata>
  <g
     inkscape:label="Layer 1"
     inkscape:groupmode="layer"
     id="layer1"
     transform="translate(0,-424.36218)">
    <rect
       style="fill:#eeffcc;fill-opacity:1;stroke:#007f00;stroke-width:2.0138948;stroke-miterlimit:2.6099999;stroke-opacity:1;stroke-dasharray:none"
       id="rect3510"
       width="327.98608"
       height="635.98608"
       x="-0.99305254"
       y="420.36914" />
    <path
       sodipodi:type="arc"
       style="fill:#ffffff;fill-opacity:0;stroke:none"
       id="path3795"
       sodipodi:cx="92.889717"
       sodipodi:cy="94.761551"
       sodipodi:rx="83.062592"
       sodipodi:ry="84.466469"
       d="m 175.95231,94.761551 c 0,46.649539 -37.18839,84.466469 -83.062593,84.466469 -45.874202,0 -83.0625915,-37.81693 -83.0625915,-84.466469 0,-46.649543 37.1883895,-84.466469 83.0625915,-84.466469 45.874203,0 83.062593,37.816926 83.062593,84.466469 z"
       transform="matrix(0,-2.3099964,-2.3548838,0,387.15244,952.93709)" />
    <text
       xml:space="preserve"
       style="font-size:40px;font-style:normal;font-weight:normal;fill:#000000;fill-opacity:1;stroke:none;font-family:Bitstream Vera Sans;filter:url(#filter3496)"
       id="text3026"><textPath
         xlink:href="#path3795"
         startOffset="50%"
         id="textPath3036"
         style="font-size:58;font-style:normal;font-variant:normal;font-weight:bold;font-stretch:normal;text-align:center;text-anchor:middle;font-family:Courier New;-inkscape-font-specification:Courier New Bold;">The editor</textPath></text>
    <g
       id="g2968"
       style="filter:url(#filter3356)">
      <path
         inkscape:connector-curvature="0"
         id="path2999"
         style="fill:#000000;fill-opacity:1;fill-rule:evenodd;stroke:#000000;stroke-width:0.20903109000000000;stroke-miterlimit:2.60999990000000004;stroke-opacity:1;stroke-dasharray:none;"
         d="M 299.80052,736.9686 162.60646,602.56167 28.199478,739.68603 162.60646,874.16269 299.80052,736.9686" />
      <path
         inkscape:connector-curvature="0"
         id="path3003"
         style="fill:#006b05;fill-opacity:1;fill-rule:evenodd;stroke:#000000;stroke-width:0.20903109000000000;stroke-miterlimit:2.60999990000000004;stroke-opacity:1;stroke-dasharray:none;"
         d="m 286.07415,736.9686 8.22189,0 -131.68958,131.68962 0,-8.2219 123.46769,-123.46772" />
      <path
         inkscape:connector-curvature="0"
         id="path3007"
         style="fill:#007d17;fill-opacity:1;fill-rule:evenodd;stroke:#000000;stroke-width:0.20903109000000000;stroke-miterlimit:2.60999990000000004;stroke-opacity:1;stroke-dasharray:none;"
         d="m 33.703958,739.68603 8.221891,0 120.680611,120.75029 0,8.2219 L 33.703958,739.68603" />
      <path
         inkscape:connector-curvature="0"
         id="path3011"
         style="fill:#66ff99;fill-opacity:1;fill-rule:evenodd;stroke:#000000;stroke-width:0.20903109000000000;stroke-miterlimit:2.60999990000000004;stroke-opacity:1;stroke-dasharray:none;"
         d="m 162.60646,616.21837 0,-8.15223 -128.902502,131.61989 8.221891,0 120.680611,-123.46766" />
      <path
         inkscape:connector-curvature="0"
         id="path3015"
         style="fill:#45ff02;fill-opacity:1;fill-rule:evenodd;stroke:#000000;stroke-width:0.20903109000000000;stroke-miterlimit:2.60999990000000004;stroke-opacity:1;stroke-dasharray:none;"
         d="m 162.60646,608.06614 0,8.15223 123.46769,120.75023 8.22189,0 -131.68958,-128.90246" />
      <path
         inkscape:connector-curvature="0"
         id="path3019"
         style="fill:#009933;fill-opacity:1;fill-rule:evenodd;stroke:#000000;stroke-width:0.20903109000000000;stroke-miterlimit:2.60999990000000004;stroke-opacity:1;stroke-dasharray:none;"
         d="M 162.60646,860.43632 286.07415,736.9686 162.60646,616.21837 41.925849,739.68603 162.60646,860.43632" />
      <path
         inkscape:connector-curvature="0"
         id="path3023"
         style="fill:#000000;fill-opacity:1;fill-rule:evenodd;stroke:#000000;stroke-width:0.20903109000000000;stroke-miterlimit:2.60999990000000004;stroke-opacity:1;stroke-dasharray:none;"
         d="m 188.24761,643.67106 8.22188,8.29158 0,0 -56.71709,57.55326 0,-57.55326 5.50448,0 8.22189,-8.29158 0,-21.87855 -8.22189,-8.29157 -91.416257,0 -8.221894,8.29157 0,21.87855 8.221894,8.29158 6.410285,0 0,186.52539 10.033492,8.22191 28.358547,0 196.558893,-203.03888 0,-21.87855 -8.22189,-8.29157 -89.60466,0 -9.12768,8.29157 0,21.87855" />
      <path
         inkscape:connector-curvature="0"
         id="path3027"
         style="fill:#ffffff;fill-opacity:1;fill-rule:evenodd;stroke:#000000;stroke-width:0.20903109000000000;stroke-miterlimit:2.60999990000000004;stroke-opacity:1;stroke-dasharray:none;"
         d="m 56.558028,646.45817 -5.504489,-5.50448 0,-16.4438 5.504489,-5.50448 85.981452,-0.0697 5.4348,5.57416 -5.4348,2.64775 -2.78708,-2.64775 -83.194372,13.6567 0,8.29158" />
      <path
         inkscape:connector-curvature="0"
         id="path3031"
         style="fill:#ffffff;fill-opacity:1;fill-rule:evenodd;stroke:#000000;stroke-width:0.20903109000000000;stroke-miterlimit:2.60999990000000004;stroke-opacity:1;stroke-dasharray:none;"
         d="m 73.001805,841.20547 -6.410285,-5.50448 0,-189.3125 6.410285,-5.4348 0,200.25178" />
      <path
         inkscape:connector-curvature="0"
         id="path3035"
         style="fill:#ffffff;fill-opacity:1;fill-rule:evenodd;stroke:#000000;stroke-width:0.20903109000000000;stroke-miterlimit:2.60999990000000004;stroke-opacity:1;stroke-dasharray:none;"
         d="m 210.19587,646.45817 5.50448,-5.50448 0,11.00895 -91.48593,93.22786 10.10317,-21.94822 75.87828,-76.78411" />
      <path
         inkscape:connector-curvature="0"
         id="path3039"
         style="fill:#7f7f7f;fill-opacity:1;fill-rule:evenodd;stroke:#000000;stroke-width:0.20903109000000000;stroke-miterlimit:2.60999990000000004;stroke-opacity:1;stroke-dasharray:none;"
         d="m 74.883082,638.23626 -1.881277,2.71743 -6.410285,5.50448 -10.033492,0 0,-11.00895 18.325054,2.78704" />
      <path
         inkscape:connector-curvature="0"
         id="path3043"
         style="fill:#7f7f7f;fill-opacity:1;fill-rule:evenodd;stroke:#000000;stroke-width:0.20903109000000000;stroke-miterlimit:2.60999990000000004;stroke-opacity:1;stroke-dasharray:none;"
         d="m 134.31759,646.45817 0,76.78411 -10.10317,21.87855 0,-104.23681 15.53798,0 2.78708,-2.71743 -2.78708,-13.6567 8.22188,0 0,16.4438 -5.4348,5.50448 -8.22189,0" />
      <path
         inkscape:connector-curvature="0"
         id="path3047"
         style="fill:#ffffff;fill-opacity:1;fill-rule:evenodd;stroke:#000000;stroke-width:0.20903109000000000;stroke-miterlimit:2.60999990000000004;stroke-opacity:1;stroke-dasharray:none;"
         d="m 199.1869,646.45817 -5.43481,-5.50448 0,-16.4438 6.34061,-5.50448 83.26404,0 6.41029,5.50448 -9.19736,8.2219 -81.38277,5.4348 0,8.29158" />
      <path
         inkscape:connector-curvature="0"
         id="path3051"
         style="fill:#7f7f7f;fill-opacity:1;fill-rule:evenodd;stroke:#000000;stroke-width:0.20903109000000000;stroke-miterlimit:2.60999990000000004;stroke-opacity:1;stroke-dasharray:none;"
         d="m 289.76703,640.95369 -193.005361,200.25177 -23.759864,0 0,-8.2219 17.419257,0 192.935678,-197.53434 -2.78707,-10.93933 9.19736,0 0,16.4438" />
      <path
         inkscape:connector-curvature="0"
         id="path3055"
         style="fill:#7f7f7f;fill-opacity:1;fill-rule:evenodd;stroke:#000000;stroke-width:0.20903109000000000;stroke-miterlimit:2.60999990000000004;stroke-opacity:1;stroke-dasharray:none;"
         d="m 217.51196,638.23626 -1.88128,2.71743 -5.43481,5.50448 -11.00897,0 0,-11.00895 18.32506,2.78704" />
      <path
         inkscape:connector-curvature="0"
         id="path3059"
         style="fill:#cccccc;fill-opacity:1;fill-rule:evenodd;stroke:#000000;stroke-width:0.20903109000000000;stroke-miterlimit:2.60999990000000004;stroke-opacity:1;stroke-dasharray:none;"
         d="m 124.21442,745.12082 0,-104.23681 15.53798,0 2.78708,-2.71742 0,-11.00895 -2.78708,-2.71743 -80.476968,0 -2.717404,2.71743 0,11.00895 2.717404,2.71742 13.726373,0 0,192.09955 3.553528,2.71743 15.677333,0 192.029884,-200.25177 0,-7.87353 -2.78708,-3.13548 -79.50149,0 -2.78708,2.71743 0,11.07862 2.78708,2.71743 13.72637,0 0,11.00895 -91.48593,93.15818" />
      <path
         inkscape:connector-curvature="0"
         id="path3063"
         style="fill:#000000;fill-opacity:1;fill-rule:evenodd;stroke:#000000;stroke-width:0.20903109000000000;stroke-miterlimit:2.60999990000000004;stroke-opacity:1;stroke-dasharray:none;"
         d="m 174.10317,745.26018 6.41029,-5.50448 16.44377,0 4.59868,5.50448 -5.50447,16.4438 -6.34062,5.50448 -16.44377,0 -4.66836,-5.50448 5.50448,-16.4438" />
      <path
         inkscape:connector-curvature="0"
         id="path3067"
         style="fill:#000000;fill-opacity:1;fill-rule:evenodd;stroke:#000000;stroke-width:0.20903109000000000;stroke-miterlimit:2.60999990000000004;stroke-opacity:1;stroke-dasharray:none;"
         d="m 179.60765,835.77066 16.51346,-49.33135 -5.50448,0 5.50448,-16.51342 24.59599,0 5.50448,5.50447 3.69289,0 5.43481,-5.50447 18.32505,0 5.50449,5.50447 3.62321,0 5.50448,-5.50447 20.06698,0 7.31609,11.00895 -11.98445,39.01911 5.43481,0 -5.29546,15.81671 -32.95723,0 12.89025,-38.39208 -8.22189,0 -7.59479,22.43602 5.43481,0 -5.1561,15.95606 -32.95724,0 12.82057,-38.39208 -8.22188,0 -7.66448,22.57537 5.50449,0 -5.1561,15.81671 -32.95724,0" />
      <path
         inkscape:connector-curvature="0"
         id="path3071"
         style="fill:#cccccc;fill-opacity:1;fill-rule:evenodd;stroke:#000000;stroke-width:0.20903109000000000;stroke-miterlimit:2.60999990000000004;stroke-opacity:1;stroke-dasharray:none;"
         d="m 285.86512,775.43036 4.25029,6.06188 -13.51734,43.3391 5.43481,0 -1.8116,5.43485 -21.94826,0 12.82057,-38.39208 -19.23086,0 -10.93929,32.95723 5.43481,0 -1.81161,5.43485 -21.94826,0 12.82057,-38.39208 -19.23086,0 -10.93929,32.95723 5.50448,0 -1.88127,5.43485 -21.94827,0 16.51346,-49.33135 -5.50449,0 1.8116,-5.50448 20.13667,0 5.50448,5.50448 5.43481,0 5.50448,-5.50448 16.44378,0 5.50449,5.50448 5.50448,0 5.50449,-5.50448 16.58312,0" />
      <path
         inkscape:connector-curvature="0"
         id="path3075"
         style="fill:#000000;fill-opacity:1;fill-rule:evenodd;stroke:#000000;stroke-width:0.20903109000000000;stroke-miterlimit:2.60999990000000004;stroke-opacity:1;stroke-dasharray:none;"
         d="m 193.33403,769.92588 -16.79216,49.95839 5.71351,0 -5.43481,15.88639 -32.88755,0 16.44378,-49.33135 -5.50449,0 38.46172,-16.51343 z m -38.46172,16.51343 5.50449,-16.51343 32.95723,0" />
      <path
         inkscape:connector-curvature="0"
         id="path3079"
         style="fill:#cccccc;fill-opacity:1;fill-rule:evenodd;stroke:#000000;stroke-width:0.20903109000000000;stroke-miterlimit:2.60999990000000004;stroke-opacity:1;stroke-dasharray:none;"
         d="m 173.19737,830.26619 1.8116,-5.43485 -5.50448,0 16.51345,-49.40098 -22.85406,0 -1.88128,5.50448 6.41028,0 -16.44378,49.33135 21.94827,0" />
      <path
         inkscape:connector-curvature="0"
         id="path3083"
         style="fill:#cccccc;fill-opacity:1;fill-rule:evenodd;stroke:#000000;stroke-width:0.20903109000000000;stroke-miterlimit:2.60999990000000004;stroke-opacity:1;stroke-dasharray:none;"
         d="m 191.45275,758.98656 3.69288,-11.00896 -1.8116,-2.71743 -11.00897,0 -3.62321,2.71743 -3.69288,11.00896 1.88128,2.71742 11.00897,0 3.55353,-2.71742" />
    </g>
  </g>
</svg>
